<?xml version="1.0"?>
<svg xmlns="http://www.w3.org/2000/svg" id="Outline" viewBox="0 0 512 512" width="512" height="512"><path d="M24,496H488a8,8,0,0,0,8-8V296a40.051,40.051,0,0,0-24-36.65V120a104,104,0,0,0-208,0V259.35A40.051,40.051,0,0,0,240,296V400H216V360a8,8,0,0,0-8-8H112V336h32a8,8,0,0,0,8-8V280a8,8,0,0,0-8-8H64a8,8,0,0,0-8,8v48a8,8,0,0,0,8,8H96v16H64a8,8,0,0,0-8,8v40H24a8,8,0,0,0-8,8v80A8,8,0,0,0,24,496ZM72,288h64v32H72ZM480,480H32V464H480ZM334.242,272l-12.8,64H305.758l12.8-64Zm83.2,0,12.8,64H414.558l-12.8-64ZM480,448H448V368h32ZM348,284.773A23.841,23.841,0,0,0,360,288h16a23.841,23.841,0,0,0,12-3.227L398.242,336H337.758ZM432,352v96H304V352ZM368,224a56.064,56.064,0,0,1-56-56V125.766l85.839-28.613L424,123.313V168A56.064,56.064,0,0,1,368,224Zm0,16a71.947,71.947,0,0,0,16-1.814V264a8.009,8.009,0,0,1-8,8H360a8.009,8.009,0,0,1-8-8V238.186A71.947,71.947,0,0,0,368,240ZM288,448H256V368h32ZM480,296v56H448v-8a8.035,8.035,0,0,0-.156-1.569h0l0-.013-.011-.055L433.758,272H456A24.027,24.027,0,0,1,480,296Zm-80-40V232.472A72.37,72.37,0,0,0,435.938,191.8,39.784,39.784,0,0,0,456,183.978V256Zm40-88V129.376a23.994,23.994,0,0,1-.325,45.358C439.881,172.516,440,170.272,440,168ZM368,32a88.1,88.1,0,0,1,88,88v.022a39.789,39.789,0,0,0-20.526-7.862L405.657,82.343a8,8,0,0,0-8.187-1.932L302.6,112.036a39.782,39.782,0,0,0-22.6,7.986V120A88.1,88.1,0,0,1,368,32ZM296.325,174.734A23.994,23.994,0,0,1,296,129.376V168C296,170.272,296.119,172.516,296.325,174.734ZM280,183.978a39.784,39.784,0,0,0,20.062,7.826A72.37,72.37,0,0,0,336,232.472V256H280ZM280,272h22.242l-14.073,70.363-.011.055,0,.013h0A8.035,8.035,0,0,0,288,344v8H256V296A24.027,24.027,0,0,1,280,272ZM72,368H200v32H72Zm168,48v32H32V416Z"/><circle cx="336" cy="152" r="8"/><circle cx="400" cy="152" r="8"/></svg>
