<svg id="Outline" enable-background="new 0 0 512 512" height="512" viewBox="0 0 512 512" width="512" xmlns="http://www.w3.org/2000/svg"><path d="m120 272h192c4.4 0 8-3.6 8-8v-64c0-4.4-3.6-8-8-8h-192c-4.4 0-8 3.6-8 8v64c0 4.4 3.6 8 8 8zm8-64h176v48h-176z"/><path d="m248 128h16c4.4 0 8-3.6 8-8s-3.6-8-8-8h-16c-4.4 0-8 3.6-8 8s3.6 8 8 8z"/><path d="m168 128h48c4.4 0 8-3.6 8-8s-3.6-8-8-8h-48c-4.4 0-8 3.6-8 8s3.6 8 8 8z"/><path d="m248 96h16c4.4 0 8-3.6 8-8s-3.6-8-8-8h-16c-4.4 0-8 3.6-8 8s3.6 8 8 8z"/><path d="m168 96h48c4.4 0 8-3.6 8-8s-3.6-8-8-8h-48c-4.4 0-8 3.6-8 8s3.6 8 8 8z"/><path d="m168 288h-32c-4.4 0-8 3.6-8 8v32c0 4.4 3.6 8 8 8h32c4.4 0 8-3.6 8-8v-32c0-4.4-3.6-8-8-8zm-8 32h-16v-16h16z"/><path d="m232 288h-32c-4.4 0-8 3.6-8 8v32c0 4.4 3.6 8 8 8h32c4.4 0 8-3.6 8-8v-32c0-4.4-3.6-8-8-8zm-8 32h-16v-16h16z"/><path d="m296 288h-32c-4.4 0-8 3.6-8 8v32c0 4.4 3.6 8 8 8h32c4.4 0 8-3.6 8-8v-32c0-4.4-3.6-8-8-8zm-8 32h-16v-16h16z"/><path d="m168 352h-32c-4.4 0-8 3.6-8 8v32c0 4.4 3.6 8 8 8h32c4.4 0 8-3.6 8-8v-32c0-4.4-3.6-8-8-8zm-8 32h-16v-16h16z"/><path d="m232 352h-32c-4.4 0-8 3.6-8 8v32c0 4.4 3.6 8 8 8h32c4.4 0 8-3.6 8-8v-32c0-4.4-3.6-8-8-8zm-8 32h-16v-16h16z"/><path d="m296 352h-32c-4.4 0-8 3.6-8 8v32c0 4.4 3.6 8 8 8h32c4.4 0 8-3.6 8-8v-32c0-4.4-3.6-8-8-8zm-8 32h-16v-16h16z"/><path d="m168 416h-32c-4.4 0-8 3.6-8 8v32c0 4.4 3.6 8 8 8h32c4.4 0 8-3.6 8-8v-32c0-4.4-3.6-8-8-8zm-8 32h-16v-16h16z"/><path d="m232 416h-32c-4.4 0-8 3.6-8 8v32c0 4.4 3.6 8 8 8h32c4.4 0 8-3.6 8-8v-32c0-4.4-3.6-8-8-8zm-8 32h-16v-16h16z"/><path d="m296 416h-32c-4.4 0-8 3.6-8 8v32c0 4.4 3.6 8 8 8h32c4.4 0 8-3.6 8-8v-32c0-4.4-3.6-8-8-8zm-8 32h-16v-16h16z"/><circle cx="280" cy="232" r="8"/><circle cx="248" cy="232" r="8"/><circle cx="216" cy="232" r="8"/><path d="m392 400c4.4 0 8-3.6 8-8v-32c0-4.4-3.6-8-8-8s-8 3.6-8 8v32c0 4.4 3.6 8 8 8z"/><path d="m248 64h16c4.4 0 8-3.6 8-8s-3.6-8-8-8h-16c-4.4 0-8 3.6-8 8s3.6 8 8 8z"/><path d="m168 64h48c4.4 0 8-3.6 8-8s-3.6-8-8-8h-48c-4.4 0-8 3.6-8 8s3.6 8 8 8z"/><path d="m408 208h-24v-24c0-22.1-17.9-40-40-40-7.5-10.1-19.4-16-32-16h-8v-16h56c4.4 0 8-3.6 8-8v-48c0-22.1-17.9-40-40-40h-160c-22.1 0-40 17.9-40 40v72h-8c-22.1 0-40 17.9-40 40v134.3c0 7.9 2.3 15.6 6.7 22.2l5.3 7.9c2.6 3.9 4 8.6 4 13.3v126.3c0 13.2 10.8 24 24 24h192c10.2 0 19.2-6.4 22.6-16h9.4c22.1 0 40-17.9 40-40v-8h24c13.2 0 24-10.8 24-24v-176c0-13.2-10.8-24-24-24zm-104-152c0-13.3 10.7-24 24-24s24 10.7 24 24v40h-48zm64 128v24h-16v-40c0-2.3-.2-4.6-.6-6.8 9.9 3.2 16.6 12.4 16.6 22.8zm-224-128c0-13.2 10.8-24 24-24h128c-5.2 6.9-8 15.3-8 24v104h-144zm188 259.6-5.3 7.9c-4.4 6.6-6.7 14.3-6.7 22.2v126.3c0 4.4-3.6 8-8 8h-192c-4.4 0-8-3.6-8-8v-126.3c0-7.9-2.3-15.6-6.7-22.2l-5.3-7.9c-2.6-3.9-4-8.6-4-13.3v-134.3c0-13.2 10.8-24 24-24h8v16h-8c-4.4 0-8 3.6-8 8s3.6 8 8 8h192c4.4 0 8-3.6 8-8s-3.6-8-8-8h-8v-16h8c13.2 0 24 10.8 24 24v134.3c0 4.7-1.4 9.4-4 13.3zm36 124.4c0 13.2-10.8 24-24 24h-8v-32h32zm48-176c0-13.2-10.8-24-24-24s-24 10.8-24 24v16c0 13.2 10.8 24 24 24s24-10.8 24-24v128c0 4.4-3.6 8-8 8h-72v-70.3c0-4.7 1.4-9.4 4-13.3l5.3-7.9c4.4-6.6 6.7-14.3 6.7-22.2v-78.3h56c4.4 0 8 3.6 8 8zm-16 0v16c0 4.4-3.6 8-8 8s-8-3.6-8-8v-16c0-4.4 3.6-8 8-8s8 3.6 8 8z"/></svg>