<svg id="Filled" height="512" viewBox="0 0 512 512" width="512" xmlns="http://www.w3.org/2000/svg"><path d="m392 208v-16h-272v16 48h288v-48z" fill="#e74444"/><path d="m281.778 160h-17.778-160v48h160 17.778 142.222v-48z" fill="#3ba673"/><path d="m200 24h128a112 112 0 0 1 112 112v40a0 0 0 0 1 0 0h-352a0 0 0 0 1 0 0v-40a112 112 0 0 1 112-112z" fill="#ea8333"/><path d="m104 248v64a16 16 0 0 0 16 16v16h288v-16a16 16 0 0 0 16-16v-64z" fill="#794832"/><path d="m456 272s-8 24-40 24-40-24-40-24-8 24-40 24-40-24-40-24-8 24-40 24-40-24-40-24-8 24-40 24-40-24-40-24-8 24-40 24-40-24-40-24l22.627-22.627a32 32 0 0 1 22.628-9.373h309.49a32 32 0 0 1 22.627 9.373z" fill="#3ba673"/><path d="m120 328h288a16 16 0 0 1 16 16v64a0 0 0 0 1 0 0h-320a0 0 0 0 1 0 0v-64a16 16 0 0 1 16-16z" fill="#794832"/><path d="m88 392h352a0 0 0 0 1 0 0v32a64 64 0 0 1 -64 64h-224a64 64 0 0 1 -64-64v-32a0 0 0 0 1 0 0z" fill="#ea8333"/><path d="m128 328 64 80 192-80z" fill="#fdd14b"/><circle cx="184" cy="88" r="8"/><circle cx="224" cy="64" r="8"/><circle cx="304" cy="64" r="8"/><circle cx="264" cy="88" r="8"/><circle cx="344" cy="88" r="8"/><path d="m439.029 243.715a39.7 39.7 0 0 0 -23.029-11.364v-16.351h8a8 8 0 0 0 8-8v-24h8a8 8 0 0 0 8-8v-40a120.136 120.136 0 0 0 -120-120h-128a120.136 120.136 0 0 0 -120 120v40a8 8 0 0 0 8 8h8v24a8 8 0 0 0 8 8h8v16h-10.746a39.734 39.734 0 0 0 -28.283 11.716l-22.628 22.627a8 8 0 0 0 -1.932 8.187 42 42 0 0 0 9.932 15.127c6.543 6.543 18.388 14.343 37.657 14.343v8a23.9 23.9 0 0 0 6.131 16 23.9 23.9 0 0 0 -6.131 16v40h-8a8 8 0 0 0 -8 8v32a72.081 72.081 0 0 0 72 72h224a72.081 72.081 0 0 0 72-72v-32a8 8 0 0 0 -8-8h-8v-40a23.905 23.905 0 0 0 -6.117-15.985 23.864 23.864 0 0 0 6.117-16.015v-10.022a47.957 47.957 0 0 0 21.657-12.321 42 42 0 0 0 9.932-15.127 8 8 0 0 0 -1.932-8.187zm-39.029-11.715h-104v-16h104zm16-32h-184v-16h184zm-320-64a104.118 104.118 0 0 1 104-104h128a104.118 104.118 0 0 1 104 104v32h-336zm120 48v16h-104v-16zm-88 32h152v16h-152zm-16 128a8.009 8.009 0 0 1 8-8h4.155l38.4 48h-50.555zm82.484 54.3-49.839-62.3h199.355zm237.516 25.7a56.064 56.064 0 0 1 -56 56h-224a56.064 56.064 0 0 1 -56-56v-24h79.355l10.4 13a8 8 0 0 0 9.324 2.387l36.921-15.387h200zm-161.6-40 115.2-48h22.4a8.009 8.009 0 0 1 8 8v40zm145.6-72a7.981 7.981 0 0 1 -8 8h-288a8.009 8.009 0 0 1 -8-8v-10.022a47.957 47.957 0 0 0 21.657-12.321q1.266-1.267 2.343-2.525 1.078 1.254 2.343 2.525c6.543 6.543 18.388 14.343 37.657 14.343s31.114-7.8 37.657-14.343q1.266-1.267 2.343-2.525 1.078 1.254 2.343 2.525c6.543 6.543 18.388 14.343 37.657 14.343s31.114-7.8 37.657-14.343q1.266-1.267 2.343-2.525 1.078 1.254 2.343 2.525c6.543 6.543 18.388 14.343 37.657 14.343s31.114-7.8 37.657-14.343q1.266-1.267 2.343-2.525 1.078 1.254 2.343 2.525c6.543 6.543 18.388 14.343 37.657 14.343zm0-24c-25.5 0-32.166-17.847-32.411-18.53a7.981 7.981 0 0 0 -15.152-.077c-.271.76-6.937 18.607-32.437 18.607s-32.166-17.847-32.411-18.53a7.981 7.981 0 0 0 -15.152-.077c-.271.76-6.937 18.607-32.437 18.607s-32.166-17.847-32.411-18.53a8 8 0 0 0 -15.178 0c-.062.185-6.477 18.53-32.411 18.53-25.5 0-32.166-17.847-32.411-18.53a8 8 0 0 0 -15.178 0c-.062.185-6.477 18.53-32.411 18.53-18.073 0-26.685-8.965-30.256-14.43l18.54-18.541a23.846 23.846 0 0 1 16.97-7.029h309.491a23.849 23.849 0 0 1 16.971 7.029l18.534 18.535c-3.588 5.495-12.202 14.436-30.25 14.436z"/></svg>