<?xml version="1.0"?>
<svg xmlns="http://www.w3.org/2000/svg" id="Filled" viewBox="0 0 512 512" width="512" height="512"><rect x="144" y="400" width="224" height="48" style="fill:#86afcc"/><circle cx="256" cy="240" r="64" style="fill:#ff9494"/><path d="M280,128h8a16,16,0,0,1,16,16v16h0a16,16,0,0,1,16,16h0a16,16,0,0,1-16,16H288v15.551c0,8.618-6.626,16.03-15.234,16.431A16,16,0,0,1,256,208h0a16,16,0,0,0-16-16h0a16,16,0,0,0-16,16v15.551c0,8.618-6.626,16.03-15.234,16.431A16,16,0,0,1,192,224V176a16,16,0,0,1,16-16h0V144a16,16,0,0,1,16-16h56Z" style="fill:#e1e3e6"/><circle cx="128" cy="240" r="64" style="fill:#f7cca9"/><circle cx="384" cy="240" r="64" style="fill:#734b39"/><path d="M364.347,416H147.653a96,96,0,0,1-90.407-63.712L40,304H472l-17.246,48.288A96,96,0,0,1,364.347,416Z" style="fill:#8fbad9"/><path d="M56,80H72a32,32,0,0,1,32,32v16a0,0,0,0,1,0,0H88A32,32,0,0,1,56,96V80A0,0,0,0,1,56,80Z" style="fill:#cfdb8c"/><path d="M440,80h16a0,0,0,0,1,0,0V96a32,32,0,0,1-32,32H408a0,0,0,0,1,0,0V112A32,32,0,0,1,440,80Z" transform="translate(864 208) rotate(180)" style="fill:#cfdb8c"/><path d="M152,128h8a16,16,0,0,1,16,16v16h0a16,16,0,0,1,16,16h0a16,16,0,0,1-16,16H160v15.551c0,8.618-6.626,16.03-15.234,16.431A16,16,0,0,1,128,208h0a16,16,0,0,0-16-16h0a16,16,0,0,0-16,16v15.551c0,8.618-6.626,16.03-15.234,16.431A16,16,0,0,1,64,224V176a16,16,0,0,1,16-16h0V144a16,16,0,0,1,16-16h8V96h16A32,32,0,0,1,152,128Z" style="fill:#e1e3e6"/><path d="M448,176h0a16,16,0,0,1-16,16H416v15.551c0,8.618-6.626,16.03-15.234,16.431A16,16,0,0,1,384,208h0a16,16,0,0,0-16-16h0a16,16,0,0,0-16,16v15.551c0,8.618-6.626,16.03-15.234,16.431A16,16,0,0,1,320,224V176a16,16,0,0,1,16-16h0V144a16,16,0,0,1,16-16h8a32,32,0,0,1,32-32h16v32h8a16,16,0,0,1,16,16v16h0A16,16,0,0,1,448,176Z" style="fill:#e1e3e6"/><path d="M394.7,235.976l-1.1.824A96,96,0,0,1,336,256H176a96,96,0,0,1-57.6-19.2l-1.1-.824a16,16,0,0,0-11.863-3.039l-32.128,4.59A16,16,0,0,0,60,257.024l2.448,10.425A64,64,0,0,0,125.413,320H386.587a64,64,0,0,0,62.968-52.551L452,257.024a16,16,0,0,0-13.314-19.5l-32.128-4.59A16,16,0,0,0,394.7,235.976Z" style="fill:#ffb632"/><path d="M488,336c-38.668,0-38.668,32-77.337,32S372,336,333.327,336s-38.667,32-77.333,32-38.666-32-77.331-32S140,368,101.331,368,62.666,336,24,336V320a16,16,0,0,1,16-16H472a16,16,0,0,1,16,16Z" style="fill:#a3d4f7"/><circle cx="256" cy="104" r="24" style="fill:#eb423f"/><path d="M472,296H446.42a72.306,72.306,0,0,0,10.963-26.912l2.405-10.236a24.041,24.041,0,0,0-3.539-19.012c-.084-.124-.176-.242-.263-.365a72.047,72.047,0,0,0-13.74-41.777A24,24,0,0,0,440,153.371V144a23.857,23.857,0,0,0-2.369-10.394A40.067,40.067,0,0,0,464,96V80a8,8,0,0,0-8-8H440a39.96,39.96,0,0,0-31.979,16H392a40.071,40.071,0,0,0-39.2,32H352a24.027,24.027,0,0,0-24,24v9.371a24.014,24.014,0,0,0-8,4.765,24.014,24.014,0,0,0-8-4.765V144a24.027,24.027,0,0,0-24-24H283.7a31.967,31.967,0,0,0-20.816-47.247A24.041,24.041,0,0,0,240,56h-8a8,8,0,0,0,0,16h8a7.963,7.963,0,0,1,5.158,1.894A31.967,31.967,0,0,0,228.305,120H224a24.027,24.027,0,0,0-24,24v9.371a24,24,0,0,0-7.982,4.748A23.89,23.89,0,0,0,184,153.358V144a24.027,24.027,0,0,0-24-24h-.8A40.071,40.071,0,0,0,120,88H103.979A39.96,39.96,0,0,0,72,72H56a8,8,0,0,0-8,8V96a40.068,40.068,0,0,0,26.37,37.606A23.844,23.844,0,0,0,72,144v9.371A24.042,24.042,0,0,0,56,176v48a23.992,23.992,0,0,0,3.16,11.871,23.924,23.924,0,0,0-6.948,22.979l2.4,10.238A72.306,72.306,0,0,0,65.58,296H40a24.028,24.028,0,0,0-24,24v16a8,8,0,0,0,8,8c10.9,0,18.048,2.887,24.308,7.039l1.408,3.94A104.235,104.235,0,0,0,136,423.334V448a8,8,0,0,0,8,8H368a8,8,0,0,0,8-8V423.334a104.237,104.237,0,0,0,86.284-68.352l1.409-3.945C469.953,346.886,477.105,344,488,344a8,8,0,0,0,8-8V320A24.028,24.028,0,0,0,472,296ZM416,112a24.027,24.027,0,0,1,24-24h8v8a24.027,24.027,0,0,1-24,24h-8Zm-88,64a8.009,8.009,0,0,1,8-8h32a8,8,0,0,0,0-16H344v-8a8.009,8.009,0,0,1,8-8h8a8,8,0,0,0,8-8,24.027,24.027,0,0,1,24-24h8v24a8,8,0,0,0,8,8h8a8.009,8.009,0,0,1,8,8v16a8,8,0,0,0,8,8,8,8,0,0,1,0,16H416a8,8,0,0,0-8,8v15.551a8.324,8.324,0,0,1-7.606,8.44A8,8,0,0,1,392,208a24,24,0,0,0-48,0v15.551a8.324,8.324,0,0,1-7.606,8.44A8,8,0,0,1,328,224Zm110.984,53.491-23.376-3.34a24.592,24.592,0,0,0,8.392-18.6v-6.72A56.089,56.089,0,0,1,438.984,229.491Zm-49.251.214-.932.694a88.579,88.579,0,0,1-52.8,17.6c.376,0,.754-.009,1.132-.027A24.192,24.192,0,0,0,360,223.551V208a8,8,0,0,1,16,0,24.048,24.048,0,0,0,13.733,21.705ZM327.7,246.516A23.922,23.922,0,0,0,335.97,248h-8.419C327.605,247.506,327.66,247.011,327.7,246.516ZM256,88a16,16,0,1,1-16,16A16.019,16.019,0,0,1,256,88Zm-56,88a8.009,8.009,0,0,1,8-8h32a8,8,0,0,0,0-16H216v-8a8.009,8.009,0,0,1,8-8h64a8.009,8.009,0,0,1,8,8v16a8,8,0,0,0,8,8,8,8,0,0,1,0,16H288a8,8,0,0,0-8,8v15.551a8.324,8.324,0,0,1-7.606,8.44A8,8,0,0,1,264,208a24,24,0,0,0-48,0v15.551a8.324,8.324,0,0,1-7.606,8.44A8,8,0,0,1,200,224Zm112,64a56.8,56.8,0,0,1-.587,8H208c.377,0,.756-.009,1.136-.027A24.192,24.192,0,0,0,232,223.551V208a8,8,0,0,1,16,0,24.112,24.112,0,0,0,7.429,17.363,23.813,23.813,0,0,0,17.708,6.61A24.192,24.192,0,0,0,296,207.551v-6.72A56.056,56.056,0,0,1,312,240Zm-112.3,6.516A23.922,23.922,0,0,0,207.97,248h-8.419C199.605,247.506,199.66,247.011,199.7,246.516ZM64,96V88h8a24.027,24.027,0,0,1,24,24v8H88A24.027,24.027,0,0,1,64,96Zm8,80a8.009,8.009,0,0,1,8-8h32a8,8,0,0,0,0-16H88v-8a8.009,8.009,0,0,1,8-8h8a8,8,0,0,0,8-8V104h8a24.027,24.027,0,0,1,24,24,8,8,0,0,0,8,8h8a8.009,8.009,0,0,1,8,8v16a8,8,0,0,0,8,8,8,8,0,1,1,0,16H160a8,8,0,0,0-8,8v15.55a8.322,8.322,0,0,1-7.6,8.439A8,8,0,0,1,136,208a24,24,0,1,0-48,0v15.55a8.725,8.725,0,0,1-.932,3.933l-13.013,1.859A7.918,7.918,0,0,1,72,224Zm112,64a56.8,56.8,0,0,1-.587,8H176a88.6,88.6,0,0,1-52.82-17.615l-1.071-.8a24.128,24.128,0,0,0-17.8-4.567l-.38.055c.031-.507.071-1.014.071-1.525V208a8,8,0,1,1,16,0,24.106,24.106,0,0,0,7.432,17.363,23.8,23.8,0,0,0,17.71,6.608A24.189,24.189,0,0,0,168,207.55v-6.719A56.056,56.056,0,0,1,184,240ZM68.966,248.86a7.915,7.915,0,0,1,5.475-3.411l32.13-4.59a8.039,8.039,0,0,1,5.949,1.536l1.081.806A104.685,104.685,0,0,0,176,264H336a104.661,104.661,0,0,0,62.38-20.786l1.129-.841a8.045,8.045,0,0,1,5.92-1.514l32.128,4.59a7.995,7.995,0,0,1,6.655,9.741l-2.45,10.431c-.031.131-.058.263-.083.4A56.289,56.289,0,0,1,425.765,296H86.235a56.289,56.289,0,0,1-15.914-29.983c-.025-.133-.052-.265-.083-.4l-2.45-10.432A7.9,7.9,0,0,1,68.966,248.86ZM360,440H152V424H360Zm4.35-32H147.65a88.206,88.206,0,0,1-71.988-37.422A58.162,58.162,0,0,0,101.331,376c22.214,0,33.664-9.476,43.767-17.837,9.183-7.6,17.113-14.163,33.565-14.163s24.382,6.564,33.564,14.163C222.33,366.524,233.78,376,255.994,376s33.664-9.476,43.767-17.837c9.183-7.6,17.113-14.163,33.566-14.163s24.384,6.564,33.568,14.163C377,366.524,388.448,376,410.664,376a58.159,58.159,0,0,0,25.677-5.425A88.209,88.209,0,0,1,364.35,408ZM480,328.441c-17.117,1.96-26.956,10.1-35.769,17.4-9.183,7.6-17.114,14.163-33.567,14.163s-24.385-6.564-33.568-14.163C366.993,337.476,355.542,328,333.327,328s-33.665,9.476-43.767,17.837c-9.183,7.6-17.114,14.163-33.566,14.163s-24.383-6.564-33.565-14.163C212.327,337.476,200.877,328,178.663,328S145,337.476,134.9,345.837c-9.183,7.6-17.113,14.163-33.565,14.163s-24.382-6.564-33.565-14.163c-8.813-7.294-18.65-15.436-35.766-17.4V320a8.009,8.009,0,0,1,8-8H472a8.009,8.009,0,0,1,8,8Z"/></svg>
